<?xml version="1.0" standalone="no"?>
<!DOCTYPE svg PUBLIC "-//W3C//DTD SVG 20010904//EN"
 "http://www.w3.org/TR/2001/REC-SVG-20010904/DTD/svg10.dtd">
<svg version="1.0" xmlns="http://www.w3.org/2000/svg"
 width="1024.000000pt" height="1024.000000pt" viewBox="0 0 1024.000000 1024.000000"
 preserveAspectRatio="xMidYMid meet">
<metadata>
Created by potrace 1.11, written by Peter Selinger 2001-2013
</metadata>
<g transform="translate(0.000000,1024.000000) scale(0.100000,-0.100000)"
fill="#000000" stroke="none">
<path d="M4270 8964 c-204 -53 -362 -222 -400 -428 -18 -96 -7 -212 28 -295
16 -36 63 -127 107 -201 43 -74 89 -155 103 -180 14 -25 55 -97 92 -160 37
-63 115 -199 174 -303 l107 -187 -79 -138 c-44 -75 -90 -156 -103 -178 -65
-113 -272 -471 -280 -484 -5 -8 -65 -112 -133 -230 -67 -118 -145 -254 -173
-301 -27 -48 -53 -93 -57 -100 -3 -8 -16 -30 -27 -49 -12 -19 -91 -156 -176
-304 -86 -148 -163 -282 -172 -298 -9 -15 -75 -130 -147 -255 -72 -126 -188
-326 -258 -447 -69 -120 -126 -221 -126 -225 -1 -3 -9 -16 -19 -28 l-19 -23
-724 0 c-793 -1 -770 1 -897 -62 -81 -40 -185 -142 -224 -218 -69 -137 -83
-293 -38 -430 54 -171 204 -308 386 -355 52 -13 353 -15 2550 -15 l2490 0 19
43 c79 181 79 391 -1 587 -88 217 -268 380 -480 437 -16 4 -432 9 -925 10
-494 2 -898 5 -898 8 0 3 287 505 395 690 49 84 363 626 407 705 11 19 71 123
133 230 62 107 122 211 132 230 11 19 69 118 128 220 59 102 119 205 133 230
24 43 184 320 377 655 51 88 102 176 113 195 11 19 70 123 132 230 62 107 165
285 229 395 145 251 178 317 191 382 53 251 -62 494 -285 603 -90 44 -158 59
-260 56 -105 -3 -186 -28 -271 -82 -96 -61 -141 -120 -283 -364 -74 -127 -137
-228 -142 -223 -7 7 -31 48 -110 190 -94 168 -117 205 -154 258 -67 94 -154
158 -265 196 -82 27 -222 34 -300 13z"/>
<path d="M5841 6848 c-67 -69 -138 -171 -194 -283 -46 -91 -111 -273 -121
-340 -4 -21 -8 -40 -10 -44 -4 -6 -16 -82 -21 -141 -5 -50 -6 -258 -1 -305 20
-187 68 -356 151 -530 28 -60 119 -225 200 -365 81 -140 184 -318 228 -395
111 -194 108 -190 167 -290 29 -49 61 -105 71 -122 10 -18 69 -119 130 -225
61 -106 181 -314 267 -463 305 -531 552 -960 562 -975 5 -8 25 -42 43 -75 19
-33 67 -116 107 -185 40 -69 78 -134 84 -145 12 -21 134 -233 151 -263 6 -9
25 -43 43 -74 67 -116 169 -206 284 -250 73 -28 82 -29 174 -34 202 -9 386 91
487 266 53 92 72 167 70 286 -1 115 -26 184 -140 381 -53 92 -136 238 -185
323 -48 85 -92 162 -98 170 -24 39 -164 286 -165 290 0 3 187 6 415 6 289 1
433 5 475 14 95 20 191 74 265 149 55 55 123 157 131 196 1 6 3 15 5 20 15 44
23 113 20 185 -10 246 -177 448 -420 505 -48 11 -204 14 -790 15 -565 0 -732
3 -738 13 -15 22 -55 91 -142 242 -47 83 -90 157 -95 165 -5 8 -43 74 -84 145
-41 72 -141 245 -222 385 -81 140 -157 273 -169 295 -13 22 -70 121 -128 220
-57 99 -116 200 -130 225 -14 25 -73 128 -133 230 -59 102 -121 210 -139 241
-98 176 -342 589 -347 589 -3 0 -29 -24 -58 -52z"/>
<path d="M2167 2868 c-66 -9 -184 -36 -208 -49 -12 -6 -91 -137 -294 -491
-152 -264 -165 -297 -170 -418 -4 -85 10 -178 36 -235 27 -63 100 -162 145
-200 112 -94 206 -128 354 -129 92 -1 115 3 183 28 123 45 209 117 288 241 24
37 118 200 174 299 13 23 68 119 124 215 56 95 101 175 101 176 0 2 27 49 59
104 l60 101 -27 32 c-121 147 -299 262 -477 308 -88 23 -251 32 -348 18z"/>
</g>
</svg>
