<?xml version="1.0" encoding="UTF-8"?>
<svg width="102px" height="76px" viewBox="0 0 102 76" version="1.1" xmlns="http://www.w3.org/2000/svg" xmlns:xlink="http://www.w3.org/1999/xlink">
    <!-- Generator: Sketch 51.1 (57501) - http://www.bohemiancoding.com/sketch -->
    <title>iconfont-universe</title>
    <desc>Created with Sketch.</desc>
    <defs></defs>
    <g id="Page-1" stroke="none" stroke-width="1" fill="none" fill-rule="evenodd">
        <g id="iconfont-universe" fill="#6BAFF9" fill-rule="nonzero">
            <path d="M47.4526106,44.2448978 C49.9917016,45.9557649 53.5915117,45.056468 55.4923877,42.2370844 C57.3959519,39.4154716 56.8792955,35.7409167 54.3403357,34.0301153 C51.8013103,32.3171501 48.2026804,33.216447 46.3004931,36.0366173 C44.3968633,38.8573778 44.9136509,42.5319982 47.4526106,44.2448978 Z M48.3422038,37.414477 C49.4847488,35.7222961 51.5526202,35.121388 52.9630005,36.0710392 C54.3734463,37.0229197 54.5917795,39.1667815 53.4506769,40.859028 C52.3096399,42.5512745 50.2401949,43.1522482 48.8298802,42.201089 C47.4195,41.2513722 47.2011012,39.106658 48.3422038,37.414477 Z" id="Shape"></path>
            <path d="M84.8376855,36.7120735 C84.2615611,34.2751337 80.3069103,32.8996999 74.4938044,32.6783506 C71.2486382,26.7641426 64.9637882,22.7550068 57.7414167,22.7550068 C47.3367564,22.7550068 38.8746061,31.0769124 38.6501753,41.4297104 C32.2988419,44.4951615 30.6123652,47.1324696 31.1492157,49.402414 C31.76127,51.990089 36.1751419,53.3853891 42.5858776,53.4692474 C46.0767834,58.0162829 51.5666513,60.9480458 57.7414167,60.9480458 C67.0638523,60.9480458 74.8241891,54.2688191 76.5008965,45.4340599 C82.1542193,42.4982319 85.4471827,39.2895202 84.8376855,36.7120735 Z M73.7557987,38.9790018 C71.0312885,38.3384266 69.0081328,35.954267 69.0081328,33.1080015 C69.0081328,32.1366481 69.1498854,31.3103913 69.4765985,30.5869411 C71.6539643,32.854853 73.1807889,35.7521284 73.7557987,38.9790018 Z M57.7414167,25.5840941 C61.6129305,25.5840941 65.1676971,26.9374979 67.9605266,29.1955749 C67.2310444,30.2726855 66.9359995,31.5084648 66.9359995,33.107936 C66.9359995,37.0079707 69.9651928,40.2492685 73.9861304,40.992126 C74.0008827,41.2768116 74.0086849,41.5632674 74.0086849,41.8515591 C74.0086849,42.394245 73.9814752,42.9307022 73.9296129,43.4597505 C70.3042322,45.1961226 65.4835262,46.8880412 59.8633141,48.2163334 C53.9331737,49.6188458 48.3751177,50.3746853 43.9705562,50.5131597 C42.3895089,48.0049501 41.4738861,45.0352248 41.4738861,41.8515591 C41.4738862,32.8682284 48.7567091,25.5840941 57.7414167,25.5840941 Z M34.4010696,48.216399 C34.1352669,47.0889341 36.2679827,46.0223795 38.8473964,44.6352094 C39.1511615,46.7156694 39.7899009,48.687094 40.707884,50.4930311 C37.060211,50.3082674 34.7138172,49.5406917 34.4010696,48.216399 Z M55.9483304,58.0195611 C56.2520955,57.0439459 56.7663916,56.7042509 58.4486721,56.7042509 C59.5179804,56.7042509 60.6009919,57.0818428 61.4405586,57.6956674 C60.2521177,57.9719605 59.0139126,58.1183684 57.7413511,58.1183684 C57.1352633,58.1184339 56.5371745,58.0841432 55.9483304,58.0195611 Z M63.7302383,56.9803474 C62.798093,55.234665 60.3353204,53.8731967 58.4486721,53.8731967 C55.8606038,53.8731967 53.5390593,54.9836146 52.9119249,57.3894108 C50.3761779,56.602231 48.106299,55.2110614 46.2700051,53.3846023 C50.3828655,53.1537461 55.0592618,52.4727824 59.9460578,51.3177144 C64.864063,50.1554997 69.3763487,48.6589008 73.1725277,47.0114356 C71.6506205,51.5647653 68.1698773,55.2213552 63.7302383,56.9803474 Z M76.8371822,41.9065685 C76.8371822,41.8881446 76.8378378,41.869983 76.8378378,41.8515591 C76.8378378,39.6402958 76.4609671,37.5174805 75.7697097,35.5422532 C79.0371681,35.7438016 80.9396833,36.4378128 81.0815671,36.9020168 C81.4943021,38.2521423 79.9171888,40.0504738 76.8371822,41.9065685 Z" id="Shape"></path>
        </g>
    </g>
</svg>